<?xml version="1.0" standalone="no"?>
<!DOCTYPE svg PUBLIC "-//W3C//DTD SVG 20010904//EN"
 "http://www.w3.org/TR/2001/REC-SVG-20010904/DTD/svg10.dtd">
<svg version="1.0" xmlns="http://www.w3.org/2000/svg"
 width="158.000000pt" height="158.000000pt" viewBox="0 0 158.000000 158.000000"
 preserveAspectRatio="xMidYMid meet">
<metadata>
Created by potrace 1.11, written by Peter Selinger 2001-2013
</metadata>
<g transform="translate(0.000000,158.000000) scale(0.100000,-0.100000)"
fill="#000000" stroke="none">
<path d="M10 1269 c0 -296 1 -313 22 -362 38 -91 137 -195 271 -286 49 -33
246 -134 282 -145 20 -6 20 -1 19 308 l-2 313 -31 66 c-39 81 -135 181 -247
256 -68 45 -289 161 -308 161 -3 0 -6 -140 -6 -311z"/>
<path d="M1520 1567 c-246 -109 -457 -238 -585 -356 -59 -54 -141 -154 -164
-199 -54 -106 -54 -106 -56 -567 -1 -237 0 -433 2 -437 5 -9 85 22 95 36 4 6
8 30 8 52 0 36 7 84 24 159 27 124 105 260 212 372 33 33 76 88 97 122 78 125
198 232 333 297 l74 35 0 250 c0 137 -3 249 -7 248 -5 0 -19 -5 -33 -12z"/>
<path d="M1470 1004 c-104 -58 -194 -135 -263 -225 -36 -48 -34 -54 11 -25 75
47 234 106 287 106 51 0 55 7 55 96 0 61 -3 84 -12 84 -7 0 -42 -16 -78 -36z"/>
<path d="M1473 800 c-105 -21 -273 -109 -344 -179 -24 -24 -48 -91 -65 -181
-8 -45 -8 -222 1 -249 6 -19 8 -19 63 16 273 173 431 379 432 561 0 47 -3 48
-87 32z"/>
<path d="M1003 478 c-62 -93 -100 -185 -118 -288 -11 -62 -15 -120 -9 -120 3
0 41 18 85 41 l78 41 -7 46 c-12 85 -7 212 14 310 3 17 5 32 3 32 -2 0 -23
-28 -46 -62z"/>
</g>
</svg>
