<svg width="160" height="40" viewBox="0 0 160 40" fill="none" xmlns="http://www.w3.org/2000/svg">
<g clip-path="url(#clip0_810_2)">
<path d="M17.6367 35H12.3633V24.3359H10.6055V15.5469H3.51562V12.0312H26.4844V15.5469H19.3945V24.3359H17.6367V35Z" fill="#9E6B58"/>
<path d="M15 12.0312C13.0615 12.0312 11.4844 10.4541 11.4844 8.51562C11.4844 6.57711 13.0615 5 15 5C16.9385 5 18.5156 6.57711 18.5156 8.51562C18.5156 10.4541 16.9385 12.0312 15 12.0312Z" fill="#9E6B58"/>
<path d="M6.61195 24.3359H2.17711L4.39453 18.7923L6.61195 24.3359ZM5.69297 17.3047H3.09609L0 25.0455V25.2148C0 27.6377 1.97168 29.6094 4.39453 29.6094C6.81738 29.6094 8.78906 27.6377 8.78906 25.2148V25.0455L5.69297 17.3047Z" fill="#9E6B58"/>
<path d="M26.9039 17.3047H24.307L21.2109 25.0455V25.2148C21.2109 27.6377 23.1826 29.6094 25.6055 29.6094C28.0283 29.6094 30 27.6377 30 25.2148V25.0455L26.9039 17.3047ZM23.3883 24.3359L25.6055 18.7924L27.8227 24.3359H23.3883Z" fill="#9E6B58"/>
</g>
<path d="M42.66 31V30.7L43.29 30.46C43.71 30.3 43.97 30.11 44.07 29.89C44.19 29.65 44.25 29.33 44.25 28.93V13.27C44.25 12.87 44.19 12.55 44.07 12.31C43.95 12.07 43.69 11.88 43.29 11.74L42.66 11.5V11.2H50.31V11.5L49.77 11.74C49.39 11.88 49.13 12.08 48.99 12.34C48.85 12.58 48.78 12.9 48.78 13.3V30.4H53.4C54.14 30.4 54.68 30.22 55.02 29.86C55.38 29.5 55.72 28.98 56.04 28.3L57.21 25.78H57.51L57.24 31H42.66ZM62.5812 31.45C61.4212 31.45 60.4412 31.12 59.6412 30.46C58.8612 29.8 58.4712 28.85 58.4712 27.61C58.4712 26.67 58.9512 25.81 59.9112 25.03C60.8712 24.23 62.3812 23.63 64.4412 23.23C64.7612 23.17 65.1212 23.11 65.5212 23.05C65.9212 22.97 66.3412 22.89 66.7812 22.81V20.44C66.7812 19.08 66.6112 18.13 66.2712 17.59C65.9512 17.03 65.4412 16.75 64.7412 16.75C64.2612 16.75 63.8812 16.91 63.6012 17.23C63.3212 17.53 63.1412 18.06 63.0612 18.82L63.0012 19.15C62.9612 20.01 62.7512 20.64 62.3712 21.04C61.9912 21.44 61.5212 21.64 60.9612 21.64C60.4412 21.64 60.0112 21.48 59.6712 21.16C59.3312 20.84 59.1612 20.41 59.1612 19.87C59.1612 19.05 59.4412 18.36 60.0012 17.8C60.5812 17.24 61.3412 16.82 62.2812 16.54C63.2212 16.26 64.2412 16.12 65.3412 16.12C67.1212 16.12 68.4912 16.56 69.4512 17.44C70.4312 18.3 70.9212 19.71 70.9212 21.67V28.3C70.9212 29.2 71.3412 29.65 72.1812 29.65H72.8412L73.1112 29.89C72.7312 30.37 72.3112 30.74 71.8512 31C71.4112 31.26 70.7812 31.39 69.9612 31.39C69.0812 31.39 68.3812 31.19 67.8612 30.79C67.3612 30.37 67.0312 29.82 66.8712 29.14C66.2712 29.78 65.6512 30.33 65.0112 30.79C64.3912 31.23 63.5812 31.45 62.5812 31.45ZM64.4112 29.62C64.8112 29.62 65.1812 29.53 65.5212 29.35C65.8812 29.15 66.3012 28.85 66.7812 28.45V23.41C66.5812 23.45 66.3812 23.49 66.1812 23.53C65.9812 23.57 65.7512 23.61 65.4912 23.65C64.5712 23.89 63.8312 24.3 63.2712 24.88C62.7312 25.44 62.4612 26.2 62.4612 27.16C62.4612 27.98 62.6512 28.6 63.0312 29.02C63.4112 29.42 63.8712 29.62 64.4112 29.62ZM78.6926 31.09L74.0726 18.4C73.8526 17.76 73.4126 17.31 72.7526 17.05L72.2426 16.87V16.57H79.5926V16.87L79.1426 16.99C78.3626 17.23 78.1026 17.71 78.3626 18.43L81.1526 26.92L83.6426 20.32L83.0726 18.61C82.9326 18.17 82.7826 17.84 82.6226 17.62C82.4826 17.38 82.2926 17.21 82.0526 17.11L81.5426 16.87V16.57H87.7526V16.87L87.3326 17.05C87.0326 17.17 86.8526 17.33 86.7926 17.53C86.7326 17.73 86.7726 18.03 86.9126 18.43L89.6726 26.77L92.5226 18.49C92.8026 17.73 92.6526 17.25 92.0726 17.05L91.4126 16.87V16.57H95.0126V16.87L94.2926 17.08C93.9526 17.18 93.7026 17.34 93.5426 17.56C93.4026 17.76 93.2726 18.04 93.1526 18.4L88.8326 31.09H87.3026L83.9726 21.28L80.4326 31.09H78.6926ZM105.7 31.54C103.66 31.54 101.86 31.12 100.3 30.28C98.7601 29.42 97.5501 28.21 96.6701 26.65C95.8101 25.07 95.3801 23.21 95.3801 21.07C95.3801 18.99 95.8101 17.17 96.6701 15.61C97.5301 14.05 98.7701 12.84 100.39 11.98C102.03 11.1 104.01 10.66 106.33 10.66C107.39 10.66 108.37 10.78 109.27 11.02C110.19 11.26 111.06 11.61 111.88 12.07L112 16.27H111.7L110.02 13.15C109.76 12.65 109.52 12.29 109.3 12.07C109.08 11.85 108.8 11.68 108.46 11.56C108.14 11.46 107.84 11.39 107.56 11.35C107.3 11.29 106.95 11.26 106.51 11.26C105.27 11.26 104.17 11.59 103.21 12.25C102.27 12.91 101.54 13.96 101.02 15.4C100.5 16.84 100.24 18.73 100.24 21.07C100.24 23.39 100.48 25.28 100.96 26.74C101.46 28.2 102.16 29.27 103.06 29.95C103.96 30.61 105 30.94 106.18 30.94C106.36 30.94 106.53 30.93 106.69 30.91C106.87 30.87 107.04 30.83 107.2 30.79C107.58 30.73 107.83 30.57 107.95 30.31C108.07 30.05 108.13 29.74 108.13 29.38V23.44C108.13 22.66 107.73 22.18 106.93 22L105.55 21.64V21.34H114.01V21.64L113.59 21.76C112.83 22 112.45 22.5 112.45 23.26V29.77C111.41 30.35 110.35 30.79 109.27 31.09C108.21 31.39 107.02 31.54 105.7 31.54ZM119.722 31.45C118.942 31.45 118.222 31.3 117.562 31C116.922 30.7 116.412 30.22 116.032 29.56C115.672 28.88 115.502 27.99 115.522 26.89L115.612 19.18C115.612 18.72 115.532 18.39 115.372 18.19C115.212 17.99 114.962 17.85 114.622 17.77L114.262 17.65V17.35L119.632 16.3L119.932 16.6L119.782 20.86V28.09C119.782 28.73 119.962 29.2 120.322 29.5C120.702 29.8 121.172 29.95 121.732 29.95C122.292 29.95 122.792 29.87 123.232 29.71C123.672 29.55 124.112 29.31 124.552 28.99L124.672 19.21C124.672 18.75 124.602 18.43 124.462 18.25C124.322 18.05 124.062 17.91 123.682 17.83L123.382 17.74V17.44L128.632 16.3L128.932 16.6L128.842 20.86V28.99C128.842 29.43 128.902 29.77 129.022 30.01C129.142 30.25 129.402 30.45 129.802 30.61L130.102 30.7V31L124.852 31.3L124.582 29.53C123.922 30.07 123.202 30.53 122.422 30.91C121.662 31.27 120.762 31.45 119.722 31.45ZM130.713 31V30.7L131.163 30.58C131.563 30.46 131.833 30.28 131.973 30.04C132.133 29.8 132.213 29.49 132.213 29.11V19.72C132.213 19.28 132.133 18.96 131.973 18.76C131.833 18.54 131.563 18.39 131.163 18.31L130.713 18.19V17.89L135.873 16.15L136.173 16.45L136.443 19.03V19.27C136.723 18.71 137.083 18.2 137.523 17.74C137.983 17.26 138.483 16.87 139.023 16.57C139.583 16.27 140.133 16.12 140.673 16.12C141.433 16.12 142.013 16.33 142.413 16.75C142.813 17.17 143.013 17.7 143.013 18.34C143.013 19.02 142.813 19.55 142.413 19.93C142.033 20.29 141.573 20.47 141.033 20.47C140.193 20.47 139.453 20.05 138.813 19.21L138.753 19.15C138.553 18.87 138.323 18.72 138.063 18.7C137.803 18.66 137.563 18.78 137.343 19.06C137.143 19.24 136.973 19.46 136.833 19.72C136.713 19.96 136.593 20.24 136.473 20.56V28.93C136.473 29.73 136.823 30.23 137.523 30.43L138.483 30.7V31H130.713ZM148.785 31.45C148.005 31.45 147.285 31.3 146.625 31C145.985 30.7 145.475 30.22 145.095 29.56C144.735 28.88 144.565 27.99 144.585 26.89L144.675 19.18C144.675 18.72 144.595 18.39 144.435 18.19C144.275 17.99 144.025 17.85 143.685 17.77L143.325 17.65V17.35L148.695 16.3L148.995 16.6L148.845 20.86V28.09C148.845 28.73 149.025 29.2 149.385 29.5C149.765 29.8 150.235 29.95 150.795 29.95C151.355 29.95 151.855 29.87 152.295 29.71C152.735 29.55 153.175 29.31 153.615 28.99L153.735 19.21C153.735 18.75 153.665 18.43 153.525 18.25C153.385 18.05 153.125 17.91 152.745 17.83L152.445 17.74V17.44L157.695 16.3L157.995 16.6L157.905 20.86V28.99C157.905 29.43 157.965 29.77 158.085 30.01C158.205 30.25 158.465 30.45 158.865 30.61L159.165 30.7V31L153.915 31.3L153.645 29.53C152.985 30.07 152.265 30.53 151.485 30.91C150.725 31.27 149.825 31.45 148.785 31.45Z" fill="#0A377F"/>
<defs>
<clipPath id="clip0_810_2">
<rect width="30" height="30" fill="white" transform="translate(0 5)"/>
</clipPath>
</defs>
</svg>
