<?xml version="1.0" encoding="utf-8"?>
<!-- Generator: Adobe Illustrator 19.0.0, SVG Export Plug-In . SVG Version: 6.00 Build 0)  -->
<svg version="1.1" id="Capa_1" xmlns:sketch="http://www.bohemiancoding.com/sketch/ns"
	 xmlns="http://www.w3.org/2000/svg" xmlns:xlink="http://www.w3.org/1999/xlink" x="0px" y="0px" viewBox="-254.1 405.8 33.1 33.1"
	 style="enable-background:new -254.1 405.8 33.1 33.1;" xml:space="preserve">
<style type="text/css">
	.st0{fill:#FFFFFF;}
</style>
<title></title>
<desc></desc>
<g id="black">
	<g id="slice" transform="translate(-800.000000, -400.000000)">
	</g>
	<g id="whatsapp" transform="translate(13.000000, 13.000000)">
		<path class="st0" d="M-250.2,425.1c-2.9,0-5.5-0.7-7.9-2l-9,2.9l2.9-8.7c-1.5-2.4-2.3-5.3-2.3-8.4c0-8.9,7.3-16.2,16.3-16.2
			c9,0,16.3,7.2,16.3,16.2S-241.2,425.1-250.2,425.1z M-250.2,395.3c-7.6,0-13.7,6.1-13.7,13.6c0,3,1,5.7,2.6,8l-1.7,5.1l5.3-1.7
			c2.2,1.4,4.8,2.3,7.5,2.3c7.6,0,13.7-6.1,13.7-13.6S-242.6,395.3-250.2,395.3L-250.2,395.3z M-241.9,412.7
			c-0.1-0.2-0.4-0.3-0.8-0.5c-0.4-0.2-2.4-1.2-2.7-1.3c-0.4-0.1-0.6-0.2-0.9,0.2c-0.3,0.4-1,1.3-1.3,1.6c-0.2,0.3-0.5,0.3-0.9,0.1
			c-0.4-0.2-1.7-0.6-3.2-2c-1.2-1.1-2-2.3-2.2-2.7c-0.2-0.4,0-0.6,0.2-0.8c0.2-0.2,0.4-0.5,0.6-0.7c0.2-0.2,0.3-0.4,0.4-0.7
			c0.1-0.3,0.1-0.5,0-0.7c-0.1-0.2-0.9-2.2-1.2-2.9c-0.3-0.8-0.7-0.7-0.9-0.7c-0.2,0-0.5,0-0.8,0s-0.7,0.1-1.1,0.5
			c-0.4,0.4-1.4,1.4-1.4,3.3c0,2,1.4,3.8,1.6,4.1c0.2,0.3,2.8,4.4,6.8,6c4.1,1.6,4.1,1.1,4.8,1c0.7-0.1,2.4-1,2.7-1.9
			C-241.8,413.6-241.8,412.8-241.9,412.7L-241.9,412.7z"/>
	</g>
</g>
</svg>
